<svg width="105" height="95" viewBox="0 0 105 95" fill="none" xmlns="http://www.w3.org/2000/svg">
<path d="M52.1112 92.1932C45.4634 92.1932 39.5685 91.0568 34.4265 88.7841C29.3129 86.483 25.2788 83.3153 22.3242 79.2812C19.3697 75.2472 17.864 70.6023 17.8072 65.3466H39.0288C39.114 67.25 39.7248 68.9403 40.8612 70.4176C41.9975 71.8665 43.5458 73.0028 45.506 73.8267C47.4663 74.6506 49.6964 75.0625 52.1964 75.0625C54.6964 75.0625 56.8981 74.6222 58.8015 73.7415C60.7333 72.8324 62.239 71.5966 63.3185 70.0341C64.3981 68.4432 64.9237 66.625 64.8952 64.5795C64.9237 62.5341 64.3413 60.7159 63.1481 59.125C61.9549 57.5341 60.2646 56.2983 58.0771 55.4176C55.918 54.5369 53.3612 54.0966 50.4066 54.0966H41.9265V39.0966H50.4066C52.9918 39.0966 55.2646 38.6705 57.2248 37.8182C59.2134 36.9659 60.7617 35.7727 61.8697 34.2386C62.9776 32.6761 63.5174 30.8864 63.489 28.8693C63.5174 26.9091 63.0487 25.1903 62.0827 23.7131C61.1452 22.2074 59.8242 21.0426 58.1197 20.2188C56.4435 19.3949 54.4975 18.983 52.2816 18.983C49.9521 18.983 47.8356 19.3949 45.9322 20.2188C44.0572 21.0426 42.5657 22.2074 41.4577 23.7131C40.3498 25.2187 39.7674 26.9659 39.7106 28.9545H19.5543C19.6112 23.7557 21.06 19.1818 23.9009 15.233C26.7418 11.2557 30.6055 8.14488 35.4918 5.90057C40.4066 3.65625 46.0032 2.53409 52.2816 2.53409C58.5316 2.53409 64.0288 3.62784 68.7731 5.81534C73.5174 8.00284 77.2106 10.9858 79.8526 14.7642C82.4947 18.5142 83.8157 22.7614 83.8157 27.5057C83.8441 32.4205 82.239 36.4687 79.0004 39.6506C75.7901 42.8324 71.6566 44.7926 66.5998 45.5312V46.2131C73.3612 47.0085 78.4606 49.196 81.8981 52.7756C85.364 56.3551 87.0827 60.8295 87.0543 66.1989C87.0543 71.2557 85.5629 75.7443 82.5799 79.6648C79.6254 83.5568 75.506 86.625 70.2219 88.8693C64.9663 91.0852 58.9293 92.1932 52.1112 92.1932Z" fill="url(#paint0_linear_97_53)"/>
<defs>
<linearGradient id="paint0_linear_97_53" x1="52.5" y1="2.92915e-06" x2="136.325" y2="114.168" gradientUnits="userSpaceOnUse">
<stop stop-color="#8BD7DC"/>
<stop offset="1" stop-color="#1246A9"/>
</linearGradient>
</defs>
</svg>
