<svg width="105" height="95" viewBox="0 0 105 95" fill="none" xmlns="http://www.w3.org/2000/svg">
<path d="M52.5 0C26.2658 0 5 21.2658 5 47.5C5 73.7342 26.2658 95 52.5 95C78.7342 95 100 73.7342 100 47.5C100 21.2658 78.7342 0 52.5 0ZM68.2612 68.4919C67.5142 69.2351 66.7308 70.0146 66.095 70.6524C65.5223 71.227 65.1181 71.9357 64.9132 72.7037C64.624 73.7878 64.3903 74.8834 63.9996 75.9349L60.6688 84.9082C58.0334 85.4828 55.3059 85.8064 52.5 85.8064V80.5623C52.8237 78.1452 51.0367 73.6173 48.1656 70.7463C47.0164 69.5971 46.371 68.038 46.371 66.4119V60.2809C46.371 58.0515 45.1701 56.0021 43.2183 54.9238C40.466 53.4011 36.5511 51.2732 33.8697 49.9229C31.6709 48.8158 29.6368 47.4061 27.8077 45.7571L27.6544 45.6192C26.3464 44.4384 25.185 43.1047 24.1954 41.6468C22.3988 39.0094 19.4722 34.6712 17.5703 31.8518C21.4909 23.1371 28.5566 16.1385 37.3364 12.3366L41.9351 14.6369C43.973 15.6558 46.371 14.1753 46.371 11.8961V9.73175C47.9013 9.48468 49.4585 9.32762 51.0424 9.26825L56.4628 14.6886C57.6599 15.8857 57.6599 17.8259 56.4628 19.023L55.5645 19.9194L53.5841 21.8998C52.9865 22.4974 52.9865 23.4684 53.5841 24.066L54.4824 24.9643C55.0799 25.5619 55.0799 26.533 54.4824 27.1305L52.9501 28.6628C52.6624 28.9499 52.2725 29.1111 51.866 29.111H50.1442C49.7458 29.111 49.3627 29.2661 49.0754 29.5458L47.1754 31.3941C46.9425 31.6208 46.7877 31.9158 46.7333 32.2363C46.6789 32.5568 46.7277 32.8863 46.8728 33.1772L49.8588 39.1511C50.3682 40.1701 49.627 41.3691 48.4893 41.3691H47.4091C47.0394 41.3691 46.6832 41.235 46.4054 40.9936L44.628 39.4499C44.2258 39.101 43.7397 38.8627 43.2175 38.7586C42.6953 38.6545 42.155 38.6881 41.6497 38.8561L35.6796 40.8462C35.2238 40.9981 34.8274 41.2897 34.5466 41.6795C34.2657 42.0694 34.1147 42.5377 34.1148 43.0181C34.1148 43.8858 34.6051 44.6768 35.3808 45.0656L37.503 46.1267C39.3053 47.0288 41.2934 47.4981 43.3084 47.4981C45.3233 47.4981 47.6351 52.725 49.4374 53.6271H62.2222C63.8483 53.6271 65.4054 54.2726 66.5566 55.4218L69.1786 58.0438C70.274 59.1397 70.8893 60.6258 70.889 62.1752C70.8886 63.3493 70.6563 64.5117 70.2053 65.5957C69.7543 66.6798 69.0937 67.664 68.2612 68.4919V68.4919ZM84.869 50.9955C83.76 50.7177 82.7927 50.0378 82.1588 49.0859L78.715 43.9203C78.2111 43.1656 77.9422 42.2784 77.9422 41.371C77.9422 40.4635 78.2111 39.5764 78.715 38.8217L82.4671 33.1945C82.9115 32.5298 83.5206 31.9897 84.2369 31.6335L86.723 30.3904C89.3125 35.5465 90.8064 41.3461 90.8064 47.5C90.8064 49.1606 90.6647 50.7867 90.4579 52.3917L84.869 50.9955Z" fill="url(#paint0_linear_97_52)"/>
<defs>
<linearGradient id="paint0_linear_97_52" x1="52.5" y1="2.92915e-06" x2="136.325" y2="114.168" gradientUnits="userSpaceOnUse">
<stop stop-color="#8BD7DC"/>
<stop offset="1" stop-color="#1246A9"/>
</linearGradient>
</defs>
</svg>
