<svg width="105" height="95" viewBox="0 0 105 95" fill="none" xmlns="http://www.w3.org/2000/svg">
<path d="M81.375 42.3125C68.3156 42.3125 57.75 52.7523 57.75 65.6562C57.75 78.5602 68.3156 89 81.375 89C94.4344 89 105 78.5602 105 65.6562C105 52.7523 94.4344 42.3125 81.375 42.3125ZM91.875 66.6775C91.875 67.5367 91.1531 68.25 90.2836 68.25H80.3414C79.4719 68.25 78.75 67.5367 78.75 66.6775V54.26C78.75 53.4008 79.4719 52.6875 80.3414 52.6875H82.4086C83.2781 52.6875 84 53.4008 84 54.26V63.0625H90.2836C91.1531 63.0625 91.875 63.7758 91.875 64.635V66.6775ZM52.5 65.6562C52.5 61.1496 53.5992 56.8861 55.4859 53.0928C54.1734 52.8496 52.8281 52.6875 51.45 52.6875H48.7102C45.068 54.341 41.0156 55.2812 36.75 55.2812C32.4844 55.2812 28.4484 54.341 24.7898 52.6875H22.05C9.87656 52.6875 0 62.4465 0 74.475V81.2188C0 85.5146 3.52734 89 7.875 89H64.8211C57.3891 83.8287 52.5 75.3018 52.5 65.6562ZM36.75 47.5C48.3492 47.5 57.75 38.2111 57.75 26.75C57.75 15.2889 48.3492 6 36.75 6C25.1508 6 15.75 15.2889 15.75 26.75C15.75 38.2111 25.1508 47.5 36.75 47.5Z" fill="url(#paint0_linear_97_51)"/>
<defs>
<linearGradient id="paint0_linear_97_51" x1="52.5" y1="6" x2="119.15" y2="120.836" gradientUnits="userSpaceOnUse">
<stop stop-color="#8BD7DC"/>
<stop offset="1" stop-color="#1246A9"/>
</linearGradient>
</defs>
</svg>
