<svg width="86" height="76" viewBox="0 0 86 76" fill="none" xmlns="http://www.w3.org/2000/svg">
<path d="M84.4844 2.83512C84.3769 2.39092 84.1271 1.98372 83.765 1.66247C83.403 1.34122 82.944 1.11958 82.4434 1.0242C77.0564 0 72.8421 0 68.6429 0C51.3777 0 41.022 8.19363 33.2944 18.9997H15.8619C14.3732 19.0009 12.914 19.3692 11.6475 20.0635C10.381 20.7579 9.35701 21.7509 8.68985 22.9318L0.421961 37.5972C0.116629 38.1405 -0.0271642 38.744 0.00422912 39.3504C0.0356224 39.9568 0.24116 40.5461 0.601336 41.0622C0.961512 41.5784 1.46438 42.0043 2.0622 42.2996C2.66003 42.5949 3.33299 42.7497 4.01721 42.7494H21.3778L17.6186 46.0847C16.6148 46.9755 16.051 48.1835 16.051 49.4431C16.051 50.7027 16.6148 51.9107 17.6186 52.8014L26.1341 60.3583C26.6312 60.7995 27.2214 61.1495 27.871 61.3882C28.5206 61.627 29.2169 61.7499 29.92 61.7499C30.6232 61.7499 31.3194 61.627 31.969 61.3882C32.6186 61.1495 33.2089 60.7995 33.706 60.3583L37.4652 57.0229V72.4365C37.465 73.0434 37.6395 73.6402 37.9722 74.1704C38.3049 74.7007 38.7848 75.1467 39.3663 75.4662C39.9478 75.7858 40.6117 75.9682 41.2949 75.9962C41.9782 76.0242 42.6582 75.8969 43.2704 75.6264L59.7828 68.2951C61.1159 67.7043 62.237 66.7954 63.0201 65.6706C63.8033 64.5457 64.2175 63.2494 64.2162 61.9273V46.4291C76.3604 39.5566 85.6304 30.3387 85.6304 15.0959C85.6472 11.3553 85.6472 7.61474 84.4844 2.83512V2.83512ZM64.2329 24.9371C62.9094 24.9371 61.6156 24.5889 60.5151 23.9365C59.4146 23.2841 58.5569 22.3568 58.0504 21.2719C57.5439 20.187 57.4114 18.9931 57.6696 17.8414C57.9278 16.6897 58.5651 15.6317 59.501 14.8013C60.4369 13.971 61.6293 13.4055 62.9274 13.1764C64.2255 12.9473 65.571 13.0649 66.7938 13.5143C68.0166 13.9637 69.0618 14.7247 69.7971 15.7011C70.5324 16.6775 70.9249 17.8254 70.9249 18.9997C70.9249 20.5744 70.2198 22.0846 68.9649 23.1981C67.7099 24.3116 66.0078 24.9371 64.2329 24.9371V24.9371Z" fill="url(#paint0_linear_187_46)"/>
<defs>
<linearGradient id="paint0_linear_187_46" x1="42.8169" y1="2.34332e-06" x2="107.115" y2="98.6734" gradientUnits="userSpaceOnUse">
<stop stop-color="#8BD7DC"/>
<stop offset="1" stop-color="#1246A9"/>
</linearGradient>
</defs>
</svg>
